<svg width="128" height="128" viewBox="0 0 128 128" fill="none" xmlns="http://www.w3.org/2000/svg">
<path d="M90.6666 112C92.0811 112 93.4377 111.438 94.4379 110.438C95.4381 109.438 96 108.081 96 106.667V78.1334C96 75.696 97.6853 73.632 99.8773 72.5814C104.416 70.4163 108.044 66.7176 110.121 62.1381C112.198 57.5586 112.59 52.3926 111.229 47.5518C109.868 42.7111 106.84 38.5067 102.681 35.6808C98.5216 32.8549 93.4977 31.5891 88.496 32.1067C86.436 27.3185 83.0179 23.2389 78.6643 20.3725C74.3107 17.5061 69.2125 15.9784 64 15.9784C58.7874 15.9784 53.6892 17.5061 49.3356 20.3725C44.982 23.2389 41.5639 27.3185 39.504 32.1067C34.5044 31.5927 29.4839 32.8603 25.3276 35.6861C21.1713 38.5119 18.1461 42.7144 16.7855 47.5526C15.4248 52.3908 15.816 57.5541 17.8901 62.132C19.9642 66.71 23.588 70.4087 28.1226 72.576C30.3146 73.632 31.9999 75.696 31.9999 78.128V106.667C31.9999 108.081 32.5619 109.438 33.562 110.438C34.5622 111.438 35.9188 112 37.3333 112H90.6666Z" stroke="#18181B" stroke-width="10.6667" stroke-linecap="round" stroke-linejoin="round"/>
<path d="M32 90.6666H96" stroke="#18181B" stroke-width="10.6667" stroke-linecap="round" stroke-linejoin="round"/>
</svg>
