<svg width="256" height="256" viewBox="0 0 256 256" fill="none" xmlns="http://www.w3.org/2000/svg">
<rect width="256" height="256" rx="128" fill="white"/>
<path d="M172.583 208.25C174.948 208.25 177.216 207.311 178.888 205.638C180.56 203.966 181.5 201.698 181.5 199.333V151.629C181.5 147.554 184.318 144.104 187.982 142.347C195.57 138.727 201.636 132.543 205.108 124.887C208.58 117.231 209.237 108.594 206.961 100.501C204.685 92.4075 199.624 85.3784 192.67 80.6538C185.716 75.9292 177.317 73.8129 168.954 74.6783C165.51 66.673 159.796 59.8525 152.517 55.0602C145.238 50.2679 136.715 47.7138 128 47.7138C119.285 47.7138 110.762 50.2679 103.483 55.0602C96.2042 59.8525 90.4896 66.673 87.0456 74.6783C78.687 73.819 70.2933 75.9383 63.3446 80.6626C56.3958 85.387 51.3381 92.413 49.0632 100.502C46.7883 108.591 47.4424 117.223 50.91 124.877C54.3776 132.531 60.4362 138.715 68.0175 142.338C71.6822 144.103 74.4999 147.554 74.4999 151.62V199.333C74.4999 201.698 75.4393 203.966 77.1115 205.638C78.7837 207.311 81.0517 208.25 83.4166 208.25H172.583Z" stroke="#18181B" stroke-width="10.6667" stroke-linecap="round" stroke-linejoin="round"/>
<path d="M74.5 172.583H181.5" stroke="#18181B" stroke-width="10.6667" stroke-linecap="round" stroke-linejoin="round"/>
</svg>
